# xmcd
#
# Track frame offsets: 
#        150
#        23165
#        42887
#        65902
#
# Disc length: 1139 seconds
#
# Revision: 0
# Processed by: cddbd v1.5.2PL0 Copyright (c) Steve Scherf et al.
# Submitted via: ExactAudioCopy v1.3
#
DISCID=31047104
DTITLE=黄前久美子(黒沢ともよ),加藤葉月(朝井彩加),川島緑輝(豊田萌絵),高坂麗奈(安済知佳) - ヴィヴァーチェ!
DYEAR=2016
DGENRE=JPop
TTITLE0=ヴィヴァーチェ!
TTITLE1=LINK UP!!!
TTITLE2=ヴィヴァーチェ! (OFF VOCAL)
TTITLE3=LINK UP!!! (OFF VOCAL)
EXTD=
EXTT0=
EXTT1=
EXTT2=
EXTT3=
PLAYORDER=
